<mxfile host="app.diagrams.net" agent="Mozilla/5.0 (X11; Linux x86_64; Chromium GOST) AppleWebKit/537.36 (KHTML, like Gecko) Chrome/128.0.0.0 Safari/537.36" version="24.7.17">
  <diagram name="Страница — 1" id="Lw_iQeE529no5sHKwRnv">
    <mxGraphModel dx="2261" dy="843" grid="1" gridSize="10" guides="1" tooltips="1" connect="1" arrows="1" fold="1" page="1" pageScale="1" pageWidth="827" pageHeight="1169" math="0" shadow="0">
      <root>
        <mxCell id="0" />
        <mxCell id="1" parent="0" />
        <mxCell id="iNGOmTYy0VVw7WSXIJ5v-2" style="edgeStyle=none;curved=1;rounded=0;orthogonalLoop=1;jettySize=auto;html=1;fontSize=12;startSize=8;endSize=8;entryX=0.5;entryY=0;entryDx=0;entryDy=0;" edge="1" parent="1" source="iNGOmTYy0VVw7WSXIJ5v-1" target="iNGOmTYy0VVw7WSXIJ5v-3">
          <mxGeometry relative="1" as="geometry">
            <mxPoint x="280" y="330" as="targetPoint" />
          </mxGeometry>
        </mxCell>
        <mxCell id="iNGOmTYy0VVw7WSXIJ5v-1" value="admin" style="shape=umlActor;verticalLabelPosition=bottom;verticalAlign=top;html=1;outlineConnect=0;" vertex="1" parent="1">
          <mxGeometry x="245" y="90" width="30" height="60" as="geometry" />
        </mxCell>
        <mxCell id="iNGOmTYy0VVw7WSXIJ5v-6" style="edgeStyle=none;curved=1;rounded=0;orthogonalLoop=1;jettySize=auto;html=1;fontSize=12;startSize=8;endSize=8;" edge="1" parent="1" source="iNGOmTYy0VVw7WSXIJ5v-3" target="iNGOmTYy0VVw7WSXIJ5v-7">
          <mxGeometry relative="1" as="geometry">
            <mxPoint x="490" y="330" as="targetPoint" />
          </mxGeometry>
        </mxCell>
        <mxCell id="iNGOmTYy0VVw7WSXIJ5v-3" value="авторизация" style="ellipse;whiteSpace=wrap;html=1;" vertex="1" parent="1">
          <mxGeometry x="200" y="330" width="120" height="80" as="geometry" />
        </mxCell>
        <mxCell id="iNGOmTYy0VVw7WSXIJ5v-8" style="edgeStyle=none;curved=1;rounded=0;orthogonalLoop=1;jettySize=auto;html=1;fontSize=12;startSize=8;endSize=8;entryX=0.5;entryY=0;entryDx=0;entryDy=0;" edge="1" parent="1" source="iNGOmTYy0VVw7WSXIJ5v-7" target="iNGOmTYy0VVw7WSXIJ5v-10">
          <mxGeometry relative="1" as="geometry">
            <mxPoint x="250" y="830" as="targetPoint" />
          </mxGeometry>
        </mxCell>
        <mxCell id="iNGOmTYy0VVw7WSXIJ5v-9" value="include" style="edgeLabel;html=1;align=center;verticalAlign=middle;resizable=0;points=[];fontSize=12;" vertex="1" connectable="0" parent="iNGOmTYy0VVw7WSXIJ5v-8">
          <mxGeometry x="0.0167" y="-3" relative="1" as="geometry">
            <mxPoint as="offset" />
          </mxGeometry>
        </mxCell>
        <mxCell id="iNGOmTYy0VVw7WSXIJ5v-7" value="панель админа" style="ellipse;whiteSpace=wrap;html=1;" vertex="1" parent="1">
          <mxGeometry x="200" y="560" width="120" height="80" as="geometry" />
        </mxCell>
        <mxCell id="iNGOmTYy0VVw7WSXIJ5v-14" style="edgeStyle=none;curved=1;rounded=0;orthogonalLoop=1;jettySize=auto;html=1;fontSize=12;startSize=8;endSize=8;" edge="1" parent="1" source="iNGOmTYy0VVw7WSXIJ5v-10" target="iNGOmTYy0VVw7WSXIJ5v-16">
          <mxGeometry relative="1" as="geometry">
            <mxPoint x="380" y="1030" as="targetPoint" />
          </mxGeometry>
        </mxCell>
        <mxCell id="iNGOmTYy0VVw7WSXIJ5v-15" value="include" style="edgeLabel;html=1;align=center;verticalAlign=middle;resizable=0;points=[];fontSize=12;" vertex="1" connectable="0" parent="iNGOmTYy0VVw7WSXIJ5v-14">
          <mxGeometry x="0.1049" y="-3" relative="1" as="geometry">
            <mxPoint as="offset" />
          </mxGeometry>
        </mxCell>
        <mxCell id="iNGOmTYy0VVw7WSXIJ5v-10" value="вывод списка смен" style="ellipse;whiteSpace=wrap;html=1;" vertex="1" parent="1">
          <mxGeometry x="190" y="840" width="140" height="80" as="geometry" />
        </mxCell>
        <mxCell id="iNGOmTYy0VVw7WSXIJ5v-16" value="вывод информации о сотрудниках работающих в данной смене" style="ellipse;whiteSpace=wrap;html=1;" vertex="1" parent="1">
          <mxGeometry x="370" y="1020" width="120" height="80" as="geometry" />
        </mxCell>
        <mxCell id="iNGOmTYy0VVw7WSXIJ5v-17" value="создание новых смен&amp;nbsp;" style="ellipse;whiteSpace=wrap;html=1;" vertex="1" parent="1">
          <mxGeometry x="110" y="1020" width="120" height="80" as="geometry" />
        </mxCell>
        <mxCell id="iNGOmTYy0VVw7WSXIJ5v-18" style="edgeStyle=none;curved=1;rounded=0;orthogonalLoop=1;jettySize=auto;html=1;entryX=0.286;entryY=0.938;entryDx=0;entryDy=0;entryPerimeter=0;fontSize=12;startSize=8;endSize=8;" edge="1" parent="1" source="iNGOmTYy0VVw7WSXIJ5v-17" target="iNGOmTYy0VVw7WSXIJ5v-10">
          <mxGeometry relative="1" as="geometry" />
        </mxCell>
        <mxCell id="iNGOmTYy0VVw7WSXIJ5v-19" value="extend" style="edgeLabel;html=1;align=center;verticalAlign=middle;resizable=0;points=[];fontSize=12;" vertex="1" connectable="0" parent="iNGOmTYy0VVw7WSXIJ5v-18">
          <mxGeometry x="-0.0672" relative="1" as="geometry">
            <mxPoint as="offset" />
          </mxGeometry>
        </mxCell>
        <mxCell id="iNGOmTYy0VVw7WSXIJ5v-26" value="" style="endArrow=none;dashed=1;html=1;dashPattern=1 3;strokeWidth=2;rounded=0;fontSize=12;startSize=8;endSize=8;curved=1;entryX=0;entryY=0.5;entryDx=0;entryDy=0;exitX=1;exitY=0.5;exitDx=0;exitDy=0;" edge="1" parent="1" source="iNGOmTYy0VVw7WSXIJ5v-28" target="iNGOmTYy0VVw7WSXIJ5v-7">
          <mxGeometry width="50" height="50" relative="1" as="geometry">
            <mxPoint x="90" y="600" as="sourcePoint" />
            <mxPoint x="170" y="600" as="targetPoint" />
          </mxGeometry>
        </mxCell>
        <mxCell id="iNGOmTYy0VVw7WSXIJ5v-27" value="include" style="edgeLabel;html=1;align=center;verticalAlign=middle;resizable=0;points=[];fontSize=12;" vertex="1" connectable="0" parent="iNGOmTYy0VVw7WSXIJ5v-26">
          <mxGeometry x="0.0727" y="-3" relative="1" as="geometry">
            <mxPoint as="offset" />
          </mxGeometry>
        </mxCell>
        <mxCell id="iNGOmTYy0VVw7WSXIJ5v-28" value="вывод списка заказов" style="ellipse;whiteSpace=wrap;html=1;" vertex="1" parent="1">
          <mxGeometry x="-40" y="560" width="120" height="80" as="geometry" />
        </mxCell>
        <mxCell id="iNGOmTYy0VVw7WSXIJ5v-29" value="" style="endArrow=none;dashed=1;html=1;dashPattern=1 3;strokeWidth=2;rounded=0;fontSize=12;startSize=8;endSize=8;curved=1;exitX=1;exitY=0.5;exitDx=0;exitDy=0;" edge="1" parent="1" source="iNGOmTYy0VVw7WSXIJ5v-7" target="iNGOmTYy0VVw7WSXIJ5v-31">
          <mxGeometry width="50" height="50" relative="1" as="geometry">
            <mxPoint x="370" y="610" as="sourcePoint" />
            <mxPoint x="440" y="600" as="targetPoint" />
          </mxGeometry>
        </mxCell>
        <mxCell id="iNGOmTYy0VVw7WSXIJ5v-30" value="include" style="edgeLabel;html=1;align=center;verticalAlign=middle;resizable=0;points=[];fontSize=12;" vertex="1" connectable="0" parent="iNGOmTYy0VVw7WSXIJ5v-29">
          <mxGeometry x="-0.0667" y="-1" relative="1" as="geometry">
            <mxPoint as="offset" />
          </mxGeometry>
        </mxCell>
        <mxCell id="iNGOmTYy0VVw7WSXIJ5v-31" value="вывод списка сотрудников" style="ellipse;whiteSpace=wrap;html=1;" vertex="1" parent="1">
          <mxGeometry x="430" y="560" width="120" height="80" as="geometry" />
        </mxCell>
        <mxCell id="iNGOmTYy0VVw7WSXIJ5v-32" value="" style="endArrow=none;dashed=1;html=1;dashPattern=1 3;strokeWidth=2;rounded=0;fontSize=12;startSize=8;endSize=8;curved=1;exitX=0.925;exitY=0.25;exitDx=0;exitDy=0;endFill=0;startArrow=classic;startFill=1;exitPerimeter=0;" edge="1" parent="1" source="iNGOmTYy0VVw7WSXIJ5v-7" target="iNGOmTYy0VVw7WSXIJ5v-34">
          <mxGeometry width="50" height="50" relative="1" as="geometry">
            <mxPoint x="550" y="560" as="sourcePoint" />
            <mxPoint x="640" y="460" as="targetPoint" />
          </mxGeometry>
        </mxCell>
        <mxCell id="iNGOmTYy0VVw7WSXIJ5v-33" value="extend" style="edgeLabel;html=1;align=center;verticalAlign=middle;resizable=0;points=[];fontSize=12;" vertex="1" connectable="0" parent="iNGOmTYy0VVw7WSXIJ5v-32">
          <mxGeometry x="0.015" relative="1" as="geometry">
            <mxPoint as="offset" />
          </mxGeometry>
        </mxCell>
        <mxCell id="iNGOmTYy0VVw7WSXIJ5v-34" value="изменение&amp;nbsp; статуса на &quot;уволен&quot;" style="ellipse;whiteSpace=wrap;html=1;" vertex="1" parent="1">
          <mxGeometry x="580" y="420" width="120" height="80" as="geometry" />
        </mxCell>
        <mxCell id="iNGOmTYy0VVw7WSXIJ5v-35" value="" style="endArrow=none;dashed=1;html=1;dashPattern=1 3;strokeWidth=2;rounded=0;fontSize=12;startSize=8;endSize=8;curved=1;exitX=1;exitY=1;exitDx=0;exitDy=0;startArrow=classic;startFill=1;entryX=0.033;entryY=0.338;entryDx=0;entryDy=0;entryPerimeter=0;" edge="1" parent="1" source="iNGOmTYy0VVw7WSXIJ5v-7" target="iNGOmTYy0VVw7WSXIJ5v-37">
          <mxGeometry width="50" height="50" relative="1" as="geometry">
            <mxPoint x="620" y="690" as="sourcePoint" />
            <mxPoint x="640" y="720" as="targetPoint" />
          </mxGeometry>
        </mxCell>
        <mxCell id="iNGOmTYy0VVw7WSXIJ5v-36" value="extend" style="edgeLabel;html=1;align=center;verticalAlign=middle;resizable=0;points=[];fontSize=12;" vertex="1" connectable="0" parent="iNGOmTYy0VVw7WSXIJ5v-35">
          <mxGeometry x="0.0454" y="-1" relative="1" as="geometry">
            <mxPoint y="1" as="offset" />
          </mxGeometry>
        </mxCell>
        <mxCell id="iNGOmTYy0VVw7WSXIJ5v-37" value="добавление новых сотрудников" style="ellipse;whiteSpace=wrap;html=1;" vertex="1" parent="1">
          <mxGeometry x="650" y="710" width="120" height="80" as="geometry" />
        </mxCell>
      </root>
    </mxGraphModel>
  </diagram>
</mxfile>
